# xmcd
#
# Track frame offsets:
#	150
#	16745
#	34660
#	48369
#	68081
#	86492
#	101507
#	117768
#	137186
#	154729
#	178977
#	194405
#	212176
#	229864
#	246608
#	265408
#
# Disc length: 3762 seconds
#
# Revision: 1
# Processed by: cddbd v1.5.2PL0 Copyright (c) Steve Scherf et al.
# Submitted via: audiograbber 1.83.01
#
DISCID=e40eb010
DTITLE=Various Artist - Hits'N'more - The Ultimate Love Collection CD 1
DYEAR=1900
DGENRE=Pop
TTITLE0=Haddaway - I Miss You (Radio Edit)
TTITLE1=Smokie - If You Think You Know How To Love Me
TTITLE2=Petry, Wolfgang - Baby I Love You
TTITLE3=Et Cetera feat Carl Wayne - Soldier's song
TTITLE4=Scarlet Lies - First time
TTITLE5=Kincade - Shine On Me Woman
TTITLE6=First Class - I Can't Believe My Eyes
TTITLE7=Deutscher, Drafi - Hand In Hand (eng)
TTITLE8=Christie, Tony - Don't Go Down To Reno
TTITLE9=Bad Boys Blue - You're A Woman
TTITLE10=Chyp - Notic - When I Dream (Radio Version)
TTITLE11=Soultans, The - Kiss And Say Goodbye
TTITLE12=d'Argent, Gerard - Je T'aime   moi non plus
TTITLE13=Porzio, Nino - Ti amo
TTITLE14=Gaye, Marvin - Sexual Healing (Live Digital rework)
TTITLE15=Down Low - Once Upon A Time
EXTD=
EXTT0=
EXTT1=
EXTT2=
EXTT3=
EXTT4=
EXTT5=
EXTT6=
EXTT7=
EXTT8=
EXTT9=
EXTT10=
EXTT11=
EXTT12=
EXTT13=
EXTT14=
EXTT15=
PLAYORDER=
